<svg width="200" height="210" viewBox="0 0 200 210" fill="none" xmlns="http://www.w3.org/2000/svg">
<path d="M46.3077 78.4616C46.3077 70.6568 48.6356 63.0273 52.9971 56.5379C57.3585 50.0485 63.5576 44.9906 70.8104 42.0038C78.0632 39.0171 86.044 38.2356 93.7436 39.7583C101.443 41.2809 108.516 45.0392 114.067 50.558C119.618 56.0768 123.398 63.1082 124.93 70.763C126.461 78.4178 125.675 86.3522 122.671 93.5628C119.667 100.773 114.579 106.937 108.052 111.273C101.524 115.609 93.8504 117.923 86 117.923C75.4729 117.923 65.3771 113.766 57.9333 106.365C50.4895 98.9646 46.3077 88.9274 46.3077 78.4616ZM152.154 210H19.8462C14.5826 210 9.53468 207.921 5.8128 204.221C2.09093 200.521 0 195.502 0 190.269C0 174.57 6.27278 159.515 17.4384 148.414C28.604 137.313 43.7479 131.077 59.5385 131.077H112.462C128.252 131.077 143.396 137.313 154.562 148.414C165.727 159.515 172 174.57 172 190.269C172 195.502 169.909 200.521 166.187 204.221C162.465 207.921 157.417 210 152.154 210Z" fill="#A7A7A7"/>
<path d="M124.114 27.3371C125.843 22.0295 128.693 17.1576 132.452 13.0287C133.088 12.3305 134.085 12.0816 134.978 12.3985L143.962 15.5859C146.398 16.4495 149.078 15.1905 149.949 12.7736C150.034 12.536 150.1 12.2918 150.146 12.044L151.858 2.72193C152.028 1.79508 152.745 1.06192 153.674 0.865734C156.391 0.291871 159.177 0 162 0C164.821 0 167.605 0.291541 170.321 0.86468C171.25 1.06067 171.967 1.79337 172.138 2.71989L173.854 12.0436C174.318 14.5684 176.757 16.2419 179.302 15.7815C179.552 15.7362 179.798 15.6708 180.037 15.586L189.022 12.3985C189.915 12.0816 190.912 12.3305 191.548 13.0287C195.307 17.1576 198.156 22.0295 199.887 27.3371C200.178 28.2324 199.896 29.2141 199.173 29.8231L191.891 35.9577C189.92 37.6189 189.679 40.5515 191.353 42.5078C191.517 42.7002 191.698 42.8789 191.891 43.0422L199.173 49.1768C199.896 49.7858 200.178 50.7675 199.887 51.6629C198.156 56.9707 195.307 61.8427 191.548 65.9712C190.912 66.6692 189.915 66.9182 189.022 66.6014L180.037 63.414C177.602 62.5507 174.922 63.8098 174.051 66.226C173.966 66.4638 173.9 66.7081 173.854 66.957L172.138 76.2802C171.967 77.2068 171.25 77.9391 170.321 78.1353C167.605 78.7083 164.821 79 162 79C159.177 79 156.391 78.7083 153.674 78.134C152.745 77.9378 152.028 77.2048 151.858 76.2782L150.146 66.9564C149.682 64.4315 147.243 62.7581 144.698 63.2184C144.448 63.2639 144.202 63.3291 143.963 63.414L134.978 66.6014C134.085 66.9182 133.088 66.6692 132.452 65.9712C128.693 61.8427 125.843 56.9707 124.114 51.6629C123.822 50.7675 124.103 49.7858 124.826 49.1768L132.108 43.0423C134.08 41.3811 134.321 38.4485 132.647 36.4921C132.482 36.2997 132.302 36.121 132.108 35.9577L124.826 29.8231C124.103 29.2141 123.822 28.2324 124.114 27.3371ZM150.434 39.4996C150.434 45.8645 155.612 51.0243 161.999 51.0243C168.386 51.0243 173.564 45.8645 173.564 39.4996C173.564 33.1347 168.386 27.9749 161.999 27.9749C155.612 27.9749 150.434 33.1347 150.434 39.4996Z" fill="#A7A7A7"/>
</svg>
