<svg width="70" height="70" viewBox="0 0 70 70" fill="none" xmlns="http://www.w3.org/2000/svg">
<path d="M10.2084 26.25C10.7853 26.25 11.3492 26.0789 11.8288 25.7585C12.3085 25.438 12.6823 24.9824 12.9031 24.4495C13.1238 23.9165 13.1816 23.3301 13.069 22.7643C12.9565 22.1985 12.6787 21.6788 12.2708 21.2709C11.8629 20.863 11.3432 20.5852 10.7774 20.4727C10.2116 20.3602 9.62521 20.4179 9.09225 20.6387C8.5593 20.8594 8.10378 21.2333 7.7833 21.7129C7.46281 22.1926 7.29175 22.7565 7.29175 23.3333C7.29175 24.1069 7.59904 24.8487 8.14602 25.3957C8.693 25.9427 9.43487 26.25 10.2084 26.25ZM21.8751 26.25H42.2917C44.6124 26.25 46.838 25.3281 48.4789 23.6872C50.1199 22.0462 51.0417 19.8206 51.0417 17.5C51.0417 15.1794 50.1199 12.9538 48.4789 11.3128C46.838 9.67187 44.6124 8.75 42.2917 8.75C40.7574 8.75635 39.2505 9.15817 37.9167 9.91667C37.5825 10.1072 37.2893 10.362 37.054 10.6663C36.8187 10.9707 36.6459 11.3186 36.5456 11.69C36.4453 12.0614 36.4194 12.449 36.4695 12.8304C36.5196 13.2119 36.6447 13.5796 36.8376 13.9125C37.0306 14.2443 37.2871 14.5347 37.5926 14.7671C37.898 14.9996 38.2463 15.1694 38.6175 15.267C38.9888 15.3645 39.3756 15.3878 39.7558 15.3356C40.1361 15.2833 40.5023 15.1566 40.8334 14.9625C41.2821 14.7211 41.7823 14.591 42.2917 14.5833C43.0653 14.5833 43.8072 14.8906 44.3541 15.4376C44.9011 15.9846 45.2084 16.7265 45.2084 17.5C45.2084 18.2735 44.9011 19.0154 44.3541 19.5624C43.8072 20.1094 43.0653 20.4167 42.2917 20.4167H21.8751C21.1015 20.4167 20.3597 20.724 19.8127 21.2709C19.2657 21.8179 18.9584 22.5598 18.9584 23.3333C18.9584 24.1069 19.2657 24.8487 19.8127 25.3957C20.3597 25.9427 21.1015 26.25 21.8751 26.25ZM10.2084 37.9167H30.6251C31.3986 37.9167 32.1405 37.6094 32.6875 37.0624C33.2345 36.5154 33.5417 35.7735 33.5417 35C33.5417 34.2265 33.2345 33.4846 32.6875 32.9376C32.1405 32.3906 31.3986 32.0833 30.6251 32.0833H10.2084C9.43487 32.0833 8.693 32.3906 8.14602 32.9376C7.59904 33.4846 7.29175 34.2265 7.29175 35C7.29175 35.7735 7.59904 36.5154 8.14602 37.0624C8.693 37.6094 9.43487 37.9167 10.2084 37.9167ZM59.7917 26.25C60.3686 26.25 60.9325 26.0789 61.4122 25.7585C61.8918 25.438 62.2656 24.9824 62.4864 24.4495C62.7071 23.9165 62.7649 23.3301 62.6524 22.7643C62.5398 22.1985 62.262 21.6788 61.8541 21.2709C61.4462 20.863 60.9265 20.5852 60.3608 20.4727C59.795 20.3602 59.2085 20.4179 58.6756 20.6387C58.1426 20.8594 57.6871 21.2333 57.3666 21.7129C57.0461 22.1926 56.8751 22.7565 56.8751 23.3333C56.8751 24.1069 57.1824 24.8487 57.7293 25.3957C58.2763 25.9427 59.0182 26.25 59.7917 26.25ZM53.9584 32.0833H42.2917C41.5182 32.0833 40.7763 32.3906 40.2294 32.9376C39.6824 33.4846 39.3751 34.2265 39.3751 35C39.3751 35.7735 39.6824 36.5154 40.2294 37.0624C40.7763 37.6094 41.5182 37.9167 42.2917 37.9167H53.9584C54.732 37.9167 55.4738 38.224 56.0208 38.7709C56.5678 39.3179 56.8751 40.0598 56.8751 40.8333C56.8751 41.6069 56.5678 42.3487 56.0208 42.8957C55.4738 43.4427 54.732 43.75 53.9584 43.75C53.1849 43.75 52.443 44.0573 51.896 44.6043C51.349 45.1513 51.0417 45.8931 51.0417 46.6667C51.0417 47.4402 51.349 48.1821 51.896 48.7291C52.443 49.276 53.1849 49.5833 53.9584 49.5833C56.2791 49.5833 58.5047 48.6615 60.1456 47.0205C61.7865 45.3796 62.7084 43.154 62.7084 40.8333C62.7084 38.5127 61.7865 36.2871 60.1456 34.6461C58.5047 33.0052 56.2791 32.0833 53.9584 32.0833ZM36.4584 43.75H24.7917C24.0182 43.75 23.2763 44.0573 22.7294 44.6043C22.1824 45.1513 21.8751 45.8931 21.8751 46.6667C21.8751 47.4402 22.1824 48.1821 22.7294 48.7291C23.2763 49.276 24.0182 49.5833 24.7917 49.5833H36.4584C37.232 49.5833 37.9738 49.8906 38.5208 50.4376C39.0678 50.9846 39.3751 51.7265 39.3751 52.5C39.3751 53.2735 39.0678 54.0154 38.5208 54.5624C37.9738 55.1094 37.232 55.4167 36.4584 55.4167C35.9489 55.409 35.4488 55.2789 35.0001 55.0375C34.6681 54.8265 34.2969 54.6848 33.9087 54.6209C33.5206 54.5571 33.1235 54.5724 32.7415 54.666C32.3594 54.7596 32.0002 54.9295 31.6855 55.1655C31.3708 55.4015 31.1071 55.6987 30.9102 56.0393C30.7133 56.3799 30.5874 56.7567 30.54 57.1472C30.4925 57.5377 30.5246 57.9338 30.6342 58.3116C30.7438 58.6894 30.9287 59.0411 31.1777 59.3456C31.4268 59.65 31.7349 59.901 32.0834 60.0833C33.4172 60.8418 34.924 61.2437 36.4584 61.25C38.7791 61.25 41.0047 60.3281 42.6456 58.6872C44.2865 57.0462 45.2084 54.8206 45.2084 52.5C45.2084 50.1794 44.2865 47.9538 42.6456 46.3128C41.0047 44.6719 38.7791 43.75 36.4584 43.75ZM13.1251 43.75H10.2084C9.43487 43.75 8.693 44.0573 8.14602 44.6043C7.59904 45.1513 7.29175 45.8931 7.29175 46.6667C7.29175 47.4402 7.59904 48.1821 8.14602 48.7291C8.693 49.276 9.43487 49.5833 10.2084 49.5833H13.1251C13.8986 49.5833 14.6405 49.276 15.1875 48.7291C15.7345 48.1821 16.0417 47.4402 16.0417 46.6667C16.0417 45.8931 15.7345 45.1513 15.1875 44.6043C14.6405 44.0573 13.8986 43.75 13.1251 43.75Z" fill="#252525"/>
</svg>
