<svg width="41" height="41" viewBox="0 0 41 41" fill="none" xmlns="http://www.w3.org/2000/svg">
<path fill-rule="evenodd" clip-rule="evenodd" d="M29.1192 0.701782C35.8972 0.701782 40.4512 5.45778 40.4512 12.5338V28.8698C40.4512 35.9458 35.8972 40.7018 29.1172 40.7018H11.7812C5.00317 40.7018 0.451172 35.9458 0.451172 28.8698V12.5338C0.451172 5.45778 5.00317 0.701782 11.7812 0.701782H29.1192ZM29.1192 3.70178H11.7812C6.72117 3.70178 3.45117 7.16778 3.45117 12.5338V28.8698C3.45117 34.2358 6.72117 37.7018 11.7812 37.7018H29.1172C34.1792 37.7018 37.4512 34.2358 37.4512 28.8698V12.5338C37.4512 7.16778 34.1792 3.70178 29.1192 3.70178ZM28.6302 14.8958C29.2162 15.4818 29.2162 16.4298 28.6302 17.0158L19.1382 26.5078C18.8462 26.8018 18.4622 26.9478 18.0782 26.9478C17.6962 26.9478 17.3102 26.8018 17.0182 26.5078L12.2702 21.7618C11.6842 21.1758 11.6842 20.2278 12.2702 19.6418C12.8562 19.0558 13.8042 19.0558 14.3902 19.6418L18.0782 23.3258L26.5102 14.8958C27.0962 14.3098 28.0442 14.3098 28.6302 14.8958Z" fill="black"/>
</svg>
