<svg width="40" height="44" viewBox="0 0 40 44" fill="none" xmlns="http://www.w3.org/2000/svg">
<path fill-rule="evenodd" clip-rule="evenodd" d="M28.2389 0.25C29.0669 0.25 29.7389 0.922 29.7389 1.75L29.7398 3.44562C32.66 3.64583 35.0853 4.64609 36.8019 6.3662C38.6759 8.2482 39.6619 10.9542 39.6519 14.2002V32.4462C39.6519 39.1102 35.4199 43.2502 28.6099 43.2502H11.6939C4.88386 43.2502 0.651855 39.0522 0.651855 32.2942V14.1962C0.651855 7.91058 4.42597 3.87588 10.5812 3.44631L10.5825 1.75C10.5825 0.922 11.2545 0.25 12.0825 0.25C12.9105 0.25 13.5825 0.922 13.5825 1.75L13.5819 3.408H26.7379L26.7389 1.75C26.7389 0.922 27.4109 0.25 28.2389 0.25ZM36.6519 18.058H3.65186V32.2942C3.65186 37.4262 6.50786 40.2502 11.6939 40.2502H28.6099C33.7959 40.2502 36.6519 37.4782 36.6519 32.4462L36.6519 18.058ZM29.0543 30.6426C29.8823 30.6426 30.5543 31.3146 30.5543 32.1426C30.5543 32.9706 29.8823 33.6426 29.0543 33.6426C28.2263 33.6426 27.5463 32.9706 27.5463 32.1426C27.5463 31.3146 28.2083 30.6426 29.0363 30.6426H29.0543ZM20.1793 30.6426C21.0073 30.6426 21.6793 31.3146 21.6793 32.1426C21.6793 32.9706 21.0073 33.6426 20.1793 33.6426C19.3513 33.6426 18.6713 32.9706 18.6713 32.1426C18.6713 31.3146 19.3333 30.6426 20.1613 30.6426H20.1793ZM11.2857 30.6426C12.1137 30.6426 12.7857 31.3146 12.7857 32.1426C12.7857 32.9706 12.1137 33.6426 11.2857 33.6426C10.4577 33.6426 9.77566 32.9706 9.77566 32.1426C9.77566 31.3146 10.4397 30.6426 11.2677 30.6426H11.2857ZM29.0543 22.8692C29.8823 22.8692 30.5543 23.5412 30.5543 24.3692C30.5543 25.1972 29.8823 25.8692 29.0543 25.8692C28.2263 25.8692 27.5463 25.1972 27.5463 24.3692C27.5463 23.5412 28.2083 22.8692 29.0363 22.8692H29.0543ZM20.1793 22.8692C21.0073 22.8692 21.6793 23.5412 21.6793 24.3692C21.6793 25.1972 21.0073 25.8692 20.1793 25.8692C19.3513 25.8692 18.6713 25.1972 18.6713 24.3692C18.6713 23.5412 19.3333 22.8692 20.1613 22.8692H20.1793ZM11.2857 22.8692C12.1137 22.8692 12.7857 23.5412 12.7857 24.3692C12.7857 25.1972 12.1137 25.8692 11.2857 25.8692C10.4577 25.8692 9.77566 25.1972 9.77566 24.3692C9.77566 23.5412 10.4397 22.8692 11.2677 22.8692H11.2857ZM26.7379 6.408H13.5819L13.5825 8.332C13.5825 9.16 12.9105 9.832 12.0825 9.832C11.2545 9.832 10.5825 9.16 10.5825 8.332L10.5814 6.4534C6.10093 6.82979 3.65186 9.54571 3.65186 14.1962V15.058H36.6519L36.6519 14.1962C36.6599 11.7262 35.9959 9.8062 34.6779 8.4862C33.5209 7.32582 31.8296 6.6328 29.7406 6.45436L29.7389 8.332C29.7389 9.16 29.0669 9.832 28.2389 9.832C27.4109 9.832 26.7389 9.16 26.7389 8.332L26.7379 6.408Z" fill="black"/>
</svg>
