<svg xmlns="http://www.w3.org/2000/svg" width="40" height="40" fill="none" viewBox="0 0 40 40"><path fill="#000" fill-rule="evenodd" d="M9.41699 22.156C17.555 22.156 17.917 24.916 17.917 30.656C17.917 33.532 17.917 35.578 16.709 37.076C15.319 38.802 12.789 39.156 9.41699 39.156C6.04499 39.156 3.51499 38.802 2.12499 37.076C0.916992 35.578 0.916992 33.534 0.916992 30.706L2.41699 30.656H0.916992C0.916992 24.916 1.27899 22.156 9.41699 22.156ZM31.417 22.156C39.555 22.156 39.917 24.916 39.917 30.656C39.917 33.532 39.917 35.578 38.709 37.076C37.319 38.802 34.789 39.156 31.417 39.156C28.045 39.156 25.515 38.802 24.125 37.076C22.917 35.578 22.917 33.534 22.917 30.706L24.417 30.656H22.917C22.917 24.916 23.279 22.156 31.417 22.156ZM9.82931 25.1569L9.41699 25.156C4.19904 25.156 3.93146 25.5304 3.91773 29.9101L3.91857 31.6164C3.92805 33.3583 3.99442 34.6166 4.45899 35.196C4.98899 35.852 6.56299 36.156 9.41699 36.156C12.271 36.156 13.845 35.85 14.375 35.194C14.917 34.52 14.917 32.92 14.917 30.704C14.917 25.7036 14.917 25.1804 9.82931 25.1569ZM31.8293 25.1569L31.417 25.156C26.199 25.156 25.9315 25.5304 25.9177 29.9101L25.9186 31.6164C25.9281 33.3583 25.9944 34.6166 26.459 35.196C26.989 35.852 28.563 36.156 31.417 36.156C34.271 36.156 35.845 35.85 36.375 35.194C36.917 34.52 36.917 32.92 36.917 30.704C36.917 25.7036 36.917 25.1804 31.8293 25.1569ZM9.41699 0.156006C17.555 0.156006 17.917 2.91601 17.917 8.65601C17.917 11.532 17.917 13.578 16.709 15.076C15.319 16.802 12.789 17.156 9.41699 17.156C6.04499 17.156 3.51499 16.802 2.12499 15.076C0.916992 13.578 0.916992 11.534 0.916992 8.70601L2.41699 8.65601H0.916992C0.916992 2.91601 1.27899 0.156006 9.41699 0.156006ZM31.417 0.156006C39.555 0.156006 39.917 2.91601 39.917 8.65601C39.917 11.532 39.917 13.578 38.709 15.076C37.319 16.802 34.789 17.156 31.417 17.156C28.045 17.156 25.515 16.802 24.125 15.076C22.917 13.578 22.917 11.534 22.917 8.70601L24.417 8.65601H22.917C22.917 2.91601 23.279 0.156006 31.417 0.156006ZM9.82931 3.1569L9.41699 3.15601C4.19904 3.15601 3.93146 3.53043 3.91773 7.91011L3.91857 9.61637C3.92805 11.3583 3.99442 12.6166 4.45899 13.196C4.98899 13.852 6.56299 14.156 9.41699 14.156C12.271 14.156 13.845 13.85 14.375 13.194C14.917 12.52 14.917 10.92 14.917 8.70401C14.917 3.7036 14.917 3.18044 9.82931 3.1569ZM31.8293 3.1569L31.417 3.15601C26.199 3.15601 25.9315 3.53043 25.9177 7.91011L25.9186 9.61637C25.9281 11.3583 25.9944 12.6166 26.459 13.196C26.989 13.852 28.563 14.156 31.417 14.156C34.271 14.156 35.845 13.85 36.375 13.194C36.917 12.52 36.917 10.92 36.917 8.70401C36.917 3.7036 36.917 3.18044 31.8293 3.1569Z" clip-rule="evenodd"/></svg>