<svg width="40" height="39" viewBox="0 0 40 39" fill="none" xmlns="http://www.w3.org/2000/svg">
<path fill-rule="evenodd" clip-rule="evenodd" d="M37.7119 35.1384C38.5399 35.1384 39.2119 35.8104 39.2119 36.6384C39.2119 37.4664 38.5399 38.1384 37.7119 38.1384H23.2059C22.3779 38.1384 21.7059 37.4664 21.7059 36.6384C21.7059 35.8104 22.3779 35.1384 23.2059 35.1384H37.7119ZM28.4435 1.56656C28.5435 1.64456 31.8895 4.24456 31.8895 4.24456C33.1055 4.96856 34.0555 6.26256 34.4155 7.79456C34.7735 9.31056 34.5135 10.8746 33.6795 12.1966C33.6739 12.2054 33.6684 12.2141 33.6491 12.24L33.634 12.26C33.4986 12.4384 32.9102 13.1825 29.9401 16.9037C29.9125 16.9525 29.8812 16.9982 29.8471 17.0426C29.797 17.108 29.7425 17.1681 29.6843 17.2229C29.4817 17.478 29.2678 17.746 29.0428 18.0278L28.5869 18.5987C27.6463 19.7766 26.5307 21.1734 25.2071 22.8302L24.5278 23.6804C21.9724 26.8788 18.6998 30.9738 14.5075 36.2186C13.5895 37.3626 12.2135 38.0286 10.7355 38.0466L3.45749 38.1386H3.43749C2.74349 38.1386 2.13949 37.6626 1.97749 36.9846L0.339486 30.0426C0.00148611 28.6046 0.337486 27.1206 1.25949 25.9686L20.0995 2.40456C20.1075 2.39656 20.1135 2.38656 20.1215 2.37856C22.1875 -0.0914373 25.9235 -0.455437 28.4435 1.56656ZM17.9989 9.83328L3.60149 27.8426C3.25949 28.2706 3.13349 28.8226 3.25949 29.3526L4.62149 35.1226L10.6995 35.0466C11.2775 35.0406 11.8115 34.7826 12.1655 34.3426C13.9885 32.0617 16.2796 29.195 18.6352 26.2473L19.4686 25.2044L20.3034 24.1597C22.5126 21.3951 24.6951 18.6634 26.5212 16.377L17.9989 9.83328ZM22.4315 4.29256L19.8729 7.48928L28.3945 14.0311C30.0347 11.9767 31.1137 10.6236 31.2135 10.4946C31.5415 9.96256 31.6695 9.21056 31.4975 8.48656C31.3215 7.74456 30.8595 7.11456 30.1935 6.71256C30.0515 6.61456 26.6815 3.99856 26.5775 3.91656C25.3095 2.90056 23.4595 3.07656 22.4315 4.29256Z" fill="black"/>
</svg>
