<svg width="36" height="32" viewBox="0 0 36 32" fill="none" xmlns="http://www.w3.org/2000/svg">
<path fill-rule="evenodd" clip-rule="evenodd" d="M29.7631 19.5314C33.1951 19.5314 35.9871 22.3094 35.9871 25.7234C35.9871 29.1374 33.1951 31.9154 29.7631 31.9154C26.3291 31.9154 23.5351 29.1374 23.5351 25.7234C23.5351 22.3094 26.3291 19.5314 29.7631 19.5314ZM29.7631 22.5314C27.9831 22.5314 26.5351 23.9634 26.5351 25.7234C26.5351 27.4854 27.9831 28.9154 29.7631 28.9154C31.5411 28.9154 32.9871 27.4854 32.9871 25.7234C32.9871 23.9634 31.5411 22.5314 29.7631 22.5314ZM15.1479 24.301C15.9759 24.301 16.6479 24.973 16.6479 25.801C16.6479 26.629 15.9759 27.301 15.1479 27.301H2.5459C1.7179 27.301 1.0459 26.629 1.0459 25.801C1.0459 24.973 1.7179 24.301 2.5459 24.301H15.1479ZM7.2133 0.115356C10.6473 0.115356 13.4393 2.89536 13.4393 6.30936C13.4393 9.72336 10.6473 12.4994 7.2133 12.4994C3.7813 12.4994 0.987305 9.72336 0.987305 6.30936C0.987305 2.89536 3.7813 0.115356 7.2133 0.115356ZM7.2133 3.11536C5.4353 3.11536 3.9873 4.54736 3.9873 6.30936C3.9873 8.06936 5.4353 9.49936 7.2133 9.49936C8.9933 9.49936 10.4393 8.06936 10.4393 6.30936C10.4393 4.54736 8.9933 3.11536 7.2133 3.11536ZM33.3695 4.91616C34.1975 4.91616 34.8695 5.58816 34.8695 6.41616C34.8695 7.24416 34.1975 7.91616 33.3695 7.91616H20.7695C19.9415 7.91616 19.2695 7.24416 19.2695 6.41616C19.2695 5.58816 19.9415 4.91616 20.7695 4.91616H33.3695Z" fill="black"/>
</svg>
