<svg xmlns="http://www.w3.org/2000/svg" width="70" height="71" fill="none" viewBox="0 0 70 71"><path fill="#252525" d="M45.6706 12.4525C44.44 11.2222 42.7711 10.5311 41.0309 10.5311C39.2908 10.5311 37.6219 11.2222 36.3912 12.4525L35 13.8437C33.7697 15.0744 33.0786 16.7433 33.0786 18.4834C33.0786 20.2236 33.7697 21.8925 35 23.1231L39.6397 27.765L27.2672 40.1375L22.6253 35.5C22.0159 34.8905 21.2924 34.407 20.4961 34.0771C19.6999 33.7473 18.8464 33.5775 17.9845 33.5775C17.1226 33.5775 16.2692 33.7473 15.4729 34.0771C14.6766 34.407 13.9531 34.8905 13.3437 35.5L11.9503 36.8912C10.72 38.1219 10.0289 39.7908 10.0289 41.5309C10.0289 43.2711 10.72 44.94 11.9503 46.1706L24.3272 58.5475C25.5578 59.7778 27.2267 60.4689 28.9669 60.4689C30.707 60.4689 32.3759 59.7778 33.6065 58.5475L35 57.1562C36.2303 55.9256 36.9214 54.2567 36.9214 52.5165C36.9214 50.7764 36.2303 49.1075 35 47.8769L30.3603 43.235L42.7328 30.8625L47.3747 35.5C47.9841 36.1095 48.7076 36.593 49.5038 36.9228C50.3001 37.2527 51.1536 37.4225 52.0155 37.4225C52.8773 37.4225 53.7308 37.2527 54.5271 36.9228C55.3233 36.593 56.0468 36.1095 56.6562 35.5L58.0497 34.1087C59.28 32.8781 59.9711 31.2092 59.9711 29.469C59.9711 27.7289 59.28 26.06 58.0497 24.8294L45.6706 12.4525ZM62.8469 13.8437L56.6562 7.65311C55.4258 6.42417 53.7578 5.73389 52.0187 5.73389C50.2797 5.73389 48.6117 6.42417 47.3812 7.65311L47.0531 7.98124C47.6696 8.37819 48.2416 8.84021 48.7594 9.35936L61.1406 21.7406C61.6598 22.2584 62.1218 22.8304 62.5187 23.4469L62.8469 23.1187C64.0758 21.8883 64.7661 20.2203 64.7661 18.4812C64.7661 16.7422 64.0758 15.0742 62.8469 13.8437ZM8.85936 49.2594C8.34021 48.7416 7.87819 48.1696 7.48124 47.5531L7.15311 47.8812C5.92417 49.1117 5.23389 50.7797 5.23389 52.5187C5.23389 54.2578 5.92417 55.9258 7.15311 57.1562L13.3437 63.3469C14.5792 64.5663 16.2453 65.25 17.9812 65.25C19.7172 65.25 21.3832 64.5663 22.6187 63.3469L22.9469 63.0187C22.3304 62.6218 21.7584 62.1598 21.2406 61.6406L8.85936 49.2594Z"/></svg>