<svg width="19" height="19" viewBox="0 0 19 19" fill="none" xmlns="http://www.w3.org/2000/svg">
<g clip-path="url(#clip0_299_540)">
<path d="M8.90528 7.89825L6.9756 4.55594C6.77915 4.21502 6.72609 3.81006 6.82809 3.43004C6.93008 3.05002 7.17878 2.72605 7.51954 2.52932C7.86029 2.33258 8.26521 2.27919 8.64531 2.38087C9.02541 2.48254 9.34959 2.73097 9.54661 3.07156L12.5154 8.21358" stroke="#252525" stroke-linecap="round" stroke-linejoin="round"/>
<path d="M6.63113 9.89686L3.81082 5.01194C3.71316 4.84312 3.64973 4.6567 3.62415 4.46335C3.59857 4.27 3.61135 4.0735 3.66175 3.88509C3.71215 3.69668 3.79918 3.52005 3.91788 3.36529C4.03658 3.21054 4.18461 3.08069 4.35352 2.98317C4.52242 2.88565 4.70889 2.82238 4.90226 2.79696C5.09563 2.77154 5.29212 2.78448 5.48049 2.83504C5.66886 2.8856 5.84541 2.97278 6.00007 3.09161C6.15473 3.21044 6.28445 3.35858 6.38183 3.52756L8.90527 7.89829" stroke="#252525" stroke-linecap="round" stroke-linejoin="round"/>
<path d="M11.4291 12.269C11.0355 11.5871 10.9288 10.7768 11.1326 10.0163C11.3364 9.25575 11.8339 8.60732 12.5158 8.21364L11.7736 6.92813C11.6759 6.75931 11.6125 6.57289 11.5869 6.37954C11.5613 6.18619 11.5741 5.98969 11.6245 5.80128C11.6749 5.61287 11.762 5.43624 11.8807 5.28148C11.9994 5.12673 12.1474 4.99688 12.3163 4.89936C12.4852 4.80184 12.6717 4.73857 12.865 4.71315C13.0584 4.68773 13.2549 4.70067 13.4433 4.75123C13.6316 4.80179 13.8082 4.88897 13.9628 5.0078C14.1175 5.12663 14.2472 5.27477 14.3446 5.44375L15.829 8.01477C16.2191 8.69004 16.4723 9.43553 16.5742 10.2087C16.6761 10.9818 16.6247 11.7675 16.423 12.5208C16.2212 13.274 15.8731 13.9802 15.3984 14.5989C14.9237 15.2176 14.3317 15.7368 13.6564 16.1267C12.981 16.5166 12.2355 16.7697 11.4623 16.8714C10.6891 16.9732 9.90348 16.9216 9.15024 16.7197C8.397 16.5178 7.69092 16.1694 7.07231 15.6946C6.4537 15.2198 5.9347 14.6277 5.54493 13.9523L2.72462 9.06734C2.52817 8.72643 2.47512 8.32146 2.57711 7.94145C2.67911 7.56143 2.92781 7.23746 3.26856 7.04072C3.60931 6.84399 4.01423 6.7906 4.39433 6.89227C4.77443 6.99395 5.09861 7.24238 5.29563 7.58297L6.63157 9.89688M6.01866 17.8127C5.01229 17.1144 4.17339 16.2016 3.56246 15.1399M13.0625 2.30078C13.7399 2.30069 14.4054 2.47902 14.9921 2.81783C15.5787 3.15663 16.0657 3.64397 16.4042 4.23079" stroke="#252525" stroke-linecap="round" stroke-linejoin="round"/>
</g>
<defs>
<clipPath id="clip0_299_540">
<rect width="19" height="19" fill="white"/>
</clipPath>
</defs>
</svg>
