<svg xmlns="http://www.w3.org/2000/svg" width="70" height="70" fill="none" viewBox="0 0 70 70"><path fill="#252525" d="M21.2335 29.5023C21.5948 29.5004 21.9528 29.5699 22.2872 29.7068C22.6215 29.8437 22.9254 30.0454 23.1816 30.3001C23.4377 30.5549 23.641 30.8578 23.7797 31.1914C23.9184 31.525 23.9898 31.8827 23.9897 32.244V41.8835H29.5022V32.244C29.5022 31.5168 29.7911 30.8195 30.3053 30.3053C30.8194 29.7911 31.5168 29.5023 32.2439 29.5023H37.7564C38.4835 29.5023 39.1809 29.7911 39.6951 30.3053C40.2092 30.8195 40.4981 31.5168 40.4981 32.244V41.8835H46.0106V32.244C46.0106 31.8827 46.082 31.525 46.2207 31.1914C46.3594 30.8578 46.5626 30.5549 46.8187 30.3001C47.0749 30.0454 47.3788 29.8437 47.7132 29.7068C48.0475 29.5699 48.4056 29.5004 48.7668 29.5023H54.2647C54.9932 29.5023 55.6921 29.7907 56.2086 30.3044C56.7251 30.8182 57.0171 31.5155 57.021 32.244V41.8835H58.3335C58.5264 41.8637 58.7213 41.8845 58.9056 41.9447C59.0899 42.0049 59.2596 42.1032 59.4035 42.2331C59.5475 42.363 59.6626 42.5216 59.7414 42.6988C59.8202 42.876 59.8609 43.0678 59.8609 43.2617C59.8609 43.4556 59.8202 43.6473 59.7414 43.8245C59.6626 44.0017 59.5475 44.1604 59.4035 44.2903C59.2596 44.4202 59.0899 44.5184 58.9056 44.5786C58.7213 44.6388 58.5264 44.6597 58.3335 44.6398H57.021V59.7919C57.021 60.5229 56.7306 61.2239 56.2137 61.7408C55.6968 62.2577 54.9957 62.5481 54.2647 62.5481H48.7668C48.4043 62.5501 48.0451 62.4801 47.7098 62.3423C47.3745 62.2044 47.0699 62.0015 46.8136 61.7451C46.5572 61.4888 46.3543 61.1842 46.2165 60.8489C46.0786 60.5137 46.0086 60.1544 46.0106 59.7919V44.6398H40.4981V59.7919C40.5 60.1531 40.4305 60.5112 40.2936 60.8455C40.1567 61.1799 39.955 61.4838 39.7002 61.74C39.4455 61.9961 39.1426 62.1993 38.809 62.338C38.4754 62.4767 38.1177 62.5481 37.7564 62.5481H32.2439C31.8826 62.5481 31.5249 62.4767 31.1913 62.338C30.8578 62.1993 30.5549 61.9961 30.3001 61.74C30.0453 61.4838 29.8437 61.1799 29.7067 60.8455C29.5698 60.5112 29.5003 60.1531 29.5022 59.7919V44.6398H23.9897V59.7919C23.9917 60.1544 23.9217 60.5137 23.7839 60.8489C23.646 61.1842 23.4431 61.4888 23.1868 61.7451C22.9304 62.0015 22.6258 62.2044 22.2906 62.3423C21.9553 62.4801 21.596 62.5501 21.2335 62.5481H15.7356C15.0046 62.5481 14.3035 62.2577 13.7866 61.7408C13.2697 61.2239 12.9793 60.5229 12.9793 59.7919V44.6398H11.6668C11.2924 44.6403 10.9321 44.4967 10.6606 44.2387C10.3891 43.9808 10.2272 43.6284 10.2085 43.2544C10.2308 42.883 10.3943 42.5341 10.6654 42.2793C10.9365 42.0244 11.2947 41.8829 11.6668 41.8835H12.9793V32.244C12.9832 31.5155 13.2753 30.8182 13.7918 30.3044C14.3082 29.7907 15.0071 29.5023 15.7356 29.5023H21.2335ZM19.8627 32.244H17.1064C16.7473 32.2651 16.4086 32.4183 16.1556 32.674C15.9025 32.9298 15.7529 33.27 15.7356 33.6294V58.3335C15.7356 58.6971 15.88 59.0458 16.1371 59.3029C16.3942 59.5599 16.7428 59.7044 17.1064 59.7044H19.8627C20.2262 59.7044 20.5749 59.5599 20.832 59.3029C21.0891 59.0458 21.2335 58.6971 21.2335 58.3335V33.5419C21.196 33.1981 21.0375 32.8789 20.7864 32.6412C20.5353 32.4034 20.2079 32.2627 19.8627 32.244ZM36.371 32.244H33.6293C33.2676 32.2616 32.9254 32.4133 32.6693 32.6694C32.4132 32.9254 32.2616 33.2676 32.2439 33.6294V58.3335C32.2651 58.6927 32.4183 59.0313 32.674 59.2844C32.9297 59.5374 33.27 59.687 33.6293 59.7044H36.371C36.7303 59.687 37.0706 59.5374 37.3263 59.2844C37.5821 59.0313 37.7352 58.6927 37.7564 58.3335V33.5419C37.7185 33.1958 37.5579 32.8747 37.3038 32.6366C37.0497 32.3986 36.7188 32.2593 36.371 32.244ZM52.8939 32.244H50.1377C49.7785 32.2651 49.4399 32.4183 49.1868 32.674C48.9338 32.9298 48.7842 33.27 48.7668 33.6294V58.3335C48.7668 58.6971 48.9113 59.0458 49.1683 59.3029C49.4254 59.5599 49.7741 59.7044 50.1377 59.7044H52.8939C53.2575 59.7044 53.6062 59.5599 53.8632 59.3029C54.1203 59.0458 54.2647 58.6971 54.2647 58.3335V33.5419C54.2272 33.1981 54.0688 32.8789 53.8177 32.6412C53.5666 32.4034 53.2392 32.2627 52.8939 32.244ZM24.7918 8.15229C24.9472 8.44455 24.9807 8.78638 24.8851 9.10327C24.7895 9.42015 24.5725 9.68639 24.2814 9.84395C23.7553 10.0681 23.3066 10.4419 22.9913 10.919C22.676 11.3961 22.5078 11.9554 22.5078 12.5273C22.5078 13.0992 22.676 13.6584 22.9913 14.1355C23.3066 14.6126 23.7553 14.9865 24.2814 15.2106C25.21 15.6475 25.9982 16.3349 26.5573 17.1954C27.1164 18.0559 27.4242 19.0555 27.446 20.0815C27.4295 21.0566 27.1498 22.0091 26.6363 22.8383C26.1229 23.6675 25.3949 24.3425 24.5293 24.7919L24.2231 24.9669C24.0833 25.055 23.9275 25.1147 23.7646 25.1426C23.6017 25.1704 23.435 25.166 23.2738 25.1294C23.1127 25.0928 22.9603 25.0249 22.8254 24.9295C22.6905 24.834 22.5758 24.7129 22.4877 24.5731C22.3996 24.4333 22.3399 24.2775 22.312 24.1147C22.2841 23.9518 22.2886 23.785 22.3251 23.6239C22.3617 23.4627 22.4296 23.3103 22.5251 23.1755C22.6205 23.0406 22.7416 22.9258 22.8814 22.8377C23.4191 22.6135 23.8817 22.2406 24.215 21.7627C24.5482 21.2849 24.7382 20.7218 24.7627 20.1398C24.7387 19.5651 24.5519 19.0091 24.224 18.5366C23.8961 18.0641 23.4405 17.6945 22.9106 17.471C21.9635 17.0477 21.1586 16.3604 20.5922 15.4913C20.0258 14.6223 19.7218 13.6084 19.7168 12.571C19.7221 11.5934 19.9972 10.6363 20.5119 9.80513C21.0265 8.97397 21.7607 8.30106 22.6335 7.86062L22.9397 7.68562C23.0877 7.58027 23.2568 7.50832 23.4353 7.47474C23.6138 7.44116 23.7975 7.44676 23.9736 7.49114C24.1497 7.53552 24.3141 7.61762 24.4554 7.73177C24.5967 7.84593 24.7115 7.98941 24.7918 8.15229ZM44.9752 8.15229C45.1305 8.44455 45.1641 8.78638 45.0685 9.10327C44.9728 9.42015 44.7558 9.68639 44.4647 9.84395C43.9386 10.0681 43.49 10.4419 43.1746 10.919C42.8593 11.3961 42.6912 11.9554 42.6912 12.5273C42.6912 13.0992 42.8593 13.6584 43.1746 14.1355C43.49 14.6126 43.9386 14.9865 44.4647 15.2106C45.3933 15.6475 46.1815 16.3349 46.7406 17.1954C47.2997 18.0559 47.6075 19.0555 47.6293 20.0815C47.6082 21.0555 47.3266 22.0062 46.8136 22.8346C46.3007 23.663 45.5752 24.3388 44.7127 24.7919L44.4064 24.9669C44.2666 25.055 44.1108 25.1147 43.948 25.1426C43.7851 25.1704 43.6183 25.166 43.4572 25.1294C43.296 25.0928 43.1436 25.0249 43.0087 24.9295C42.8739 24.834 42.7591 24.7129 42.671 24.5731C42.5829 24.4333 42.5232 24.2775 42.4953 24.1147C42.4674 23.9518 42.4719 23.785 42.5085 23.6239C42.545 23.4627 42.613 23.3103 42.7084 23.1755C42.8039 23.0406 42.9249 22.9258 43.0647 22.8377C43.6004 22.6106 44.0611 22.2369 44.3939 21.7597C44.7267 21.2824 44.9181 20.7209 44.946 20.1398C44.9186 19.566 44.7305 19.0115 44.403 18.5396C44.0755 18.0677 43.6218 17.6974 43.0939 17.471C42.1721 17.0656 41.3838 16.4076 40.82 15.5731C40.2563 14.7386 39.9402 13.7616 39.9081 12.755C39.8761 11.7485 40.1295 10.7534 40.639 9.88473C41.1486 9.01607 41.8935 8.30929 42.7877 7.84604L43.0939 7.68562C43.3879 7.53137 43.7312 7.50002 44.0483 7.59843C44.3654 7.69685 44.6305 7.917 44.7856 8.21062L44.9752 8.15229ZM34.8835 8.15229C35.0389 8.44455 35.0724 8.78638 34.9768 9.10327C34.8812 9.42015 34.6642 9.68639 34.3731 9.84395C33.8469 10.0681 33.3983 10.4419 33.083 10.919C32.7676 11.3961 32.5995 11.9554 32.5995 12.5273C32.5995 13.0992 32.7676 13.6584 33.083 14.1355C33.3983 14.6126 33.8469 14.9865 34.3731 15.2106C35.3017 15.6475 36.0899 16.3349 36.649 17.1954C37.2081 18.0559 37.5158 19.0555 37.5377 20.0815C37.5212 21.0566 37.2414 22.0091 36.728 22.8383C36.2146 23.6675 35.4866 24.3425 34.621 24.7919L34.3147 24.9669C34.173 25.0521 34.0159 25.1086 33.8524 25.1331C33.6888 25.1576 33.5221 25.1496 33.3616 25.1097C33.2011 25.0697 33.0501 24.9986 32.9171 24.9002C32.7841 24.8019 32.6718 24.6784 32.5866 24.5367C32.5014 24.3949 32.4449 24.2378 32.4204 24.0743C32.3959 23.9107 32.4039 23.744 32.4438 23.5835C32.4838 23.423 32.5549 23.272 32.6532 23.139C32.7516 23.0061 32.8751 22.8938 33.0168 22.8085C33.578 22.5979 34.0651 22.2273 34.4176 21.7425C34.7702 21.2578 34.9727 20.6802 35.0002 20.0815C34.9762 19.5068 34.7894 18.9508 34.4615 18.4783C34.1336 18.0057 33.678 17.6362 33.1481 17.4127C32.2021 16.9879 31.3982 16.3002 30.832 15.4315C30.2658 14.5628 29.9611 13.5496 29.9543 12.5127C29.9602 11.5333 30.2354 10.5745 30.7499 9.74107C31.2643 8.90767 31.9981 8.23189 32.871 7.7877L33.1772 7.62729C33.4713 7.47304 33.8145 7.44168 34.1316 7.5401C34.4487 7.63852 34.7139 7.85867 34.8689 8.15229H34.8835Z"/></svg>