<svg width="22" height="23" viewBox="0 0 22 23" fill="none" xmlns="http://www.w3.org/2000/svg">
<path fill-rule="evenodd" clip-rule="evenodd" d="M12.2882 15.4283C13.5424 15.4283 14.5632 16.4419 14.5632 17.6877V20.8919C14.5632 21.1596 14.7778 21.3742 15.0528 21.3804H17.0382C18.6028 21.3804 19.8747 20.1242 19.8747 18.5804V9.49293C19.8674 8.96168 19.6143 8.46168 19.1799 8.12939L12.3122 2.6523C11.3903 1.92209 10.1007 1.92209 9.17572 2.65439L2.35488 8.1273C1.90384 8.47001 1.65072 8.97001 1.64551 9.51064V18.5804C1.64551 20.1242 2.91738 21.3804 4.48197 21.3804H6.48613C6.76842 21.3804 6.99759 21.1565 6.99759 20.8815C6.99759 20.8211 7.00488 20.7606 7.01738 20.7033V17.6877C7.01738 16.4492 8.03197 15.4367 9.27676 15.4283H12.2882ZM17.0382 22.9429H15.034C13.8861 22.9158 13.0007 22.0148 13.0007 20.8919V17.6877C13.0007 17.3033 12.6809 16.9908 12.2882 16.9908H9.28197C8.89759 16.9929 8.57988 17.3065 8.57988 17.6877V20.8815C8.57988 20.9596 8.56947 21.0346 8.54759 21.1054C8.43509 22.1367 7.55384 22.9429 6.48613 22.9429H4.48197C2.05592 22.9429 0.0830078 20.9856 0.0830078 18.5804V9.50334C0.0934245 8.46793 0.570508 7.52001 1.39447 6.89605L8.20176 1.43251C9.70072 0.245012 11.7893 0.245012 13.2851 1.43043L20.1413 6.89918C20.9465 7.51272 21.4236 8.45855 21.4372 9.48147V18.5804C21.4372 20.9856 19.4643 22.9429 17.0382 22.9429Z" fill="#A7A7A7"/>
</svg>
