<svg width="66" height="66" viewBox="0 0 66 66" fill="none" xmlns="http://www.w3.org/2000/svg">
<path d="M65.2482 61.273L64.3842 52.797C64.3379 52.3391 64.1348 51.9113 63.8092 51.586L44.5302 32.306C45.7182 29.5153 46.3292 26.5131 46.3262 23.48C46.3262 10.912 36.1002 0.687012 23.5322 0.687012C10.9642 0.688012 0.740234 10.913 0.740234 23.481C0.740234 36.048 10.9642 46.273 23.5312 46.273C26.7352 46.273 29.9282 45.585 32.8512 44.275L40.9152 52.338C41.2513 52.674 41.696 52.8793 42.1696 52.9173C42.6433 52.9552 43.115 52.8232 43.5002 52.545L44.2832 51.98L44.5502 52.209L43.9522 53.592C43.7938 53.96 43.7495 54.367 43.8249 54.7605C43.9003 55.1539 44.092 55.5157 44.3752 55.799L48.1822 59.604C48.5266 59.9522 48.9882 60.1597 49.4772 60.186L52.0612 60.34L53.3092 63.961C53.4696 64.4272 53.7966 64.8177 54.2275 65.0573C54.6584 65.2969 55.1626 65.3687 55.6432 65.259L63.7032 63.425C64.1792 63.3169 64.599 63.0383 64.8837 62.6419C65.1683 62.2454 65.298 61.7585 65.2482 61.273ZM56.5062 60.962L55.4072 57.772C55.2782 57.3975 55.0408 57.0697 54.7251 56.8304C54.4094 56.5911 54.0297 56.451 53.6342 56.428L50.4732 56.239L48.1642 53.93L48.8092 52.44C48.9787 52.0477 49.018 51.6114 48.9214 51.1951C48.8247 50.7789 48.5972 50.4045 48.2722 50.127L45.6862 47.92C45.3455 47.629 44.9169 47.4609 44.4692 47.4426C44.0215 47.4243 43.5806 47.5568 43.2172 47.819L42.5402 48.307L34.6722 40.438C34.3696 40.1352 33.9777 39.9376 33.5543 39.8742C33.1309 39.8108 32.6983 39.8851 32.3202 40.086C29.6162 41.53 26.5966 42.2817 23.5312 42.274C13.1702 42.274 4.74023 33.844 4.74023 23.482C4.74023 13.12 13.1702 4.68901 23.5312 4.69001C33.8932 4.69001 42.3252 13.121 42.3252 23.483C42.3252 26.393 41.6572 29.206 40.3412 31.846C40.1543 32.2213 40.09 32.6458 40.1575 33.0596C40.225 33.4734 40.4208 33.8556 40.7172 34.152L60.4792 53.913L61.0902 59.919L56.5062 60.962Z" fill="black"/>
</svg>
