<svg width="48" height="48" viewBox="0 0 48 48" fill="none" xmlns="http://www.w3.org/2000/svg">
<path fill-rule="evenodd" clip-rule="evenodd" d="M16 31V29H5V31H16ZM16 33H5V43H16V33ZM29 31V29H18V31H29ZM29 33H18V43H29V33ZM5.535 27C5.07079 26.1923 4.90294 25.2479 5.06036 24.3297C5.21778 23.4114 5.69062 22.5769 6.39737 21.9699C7.10411 21.3629 8.00048 21.0215 8.93195 21.0046C9.86342 20.9876 10.7716 21.2961 11.5 21.877C12.2279 21.2934 13.1369 20.9825 14.0697 20.9983C15.0026 21.014 15.9006 21.3554 16.6084 21.9633C17.3161 22.5711 17.7891 23.4073 17.9456 24.327C18.102 25.2468 17.932 26.1923 17.465 27H44C44.2652 27 44.5196 27.1054 44.7071 27.2929C44.8946 27.4804 45 27.7348 45 28V44C45 44.2652 44.8946 44.5196 44.7071 44.7071C44.5196 44.8946 44.2652 45 44 45H4C3.73478 45 3.48043 44.8946 3.29289 44.7071C3.10536 44.5196 3 44.2652 3 44V28C3 27.7348 3.10536 27.4804 3.29289 27.2929C3.48043 27.1054 3.73478 27 4 27H5.535ZM31 29V43H43V29H31ZM7.586 23.586C7.22089 23.9515 7.0114 24.4442 7.0014 24.9607C6.9914 25.4772 7.18167 25.9776 7.53236 26.357C7.88304 26.7364 8.36693 26.9653 8.88266 26.9959C9.39839 27.0265 9.90594 26.8563 10.299 26.521C9.9 25.548 9.9 24.451 10.299 23.479C9.91627 23.1522 9.42442 22.9818 8.92156 23.0016C8.4187 23.0214 7.94181 23.2301 7.586 23.586ZM12.586 26.414C12.7705 26.605 12.9912 26.7574 13.2352 26.8622C13.4792 26.967 13.7416 27.0222 14.0072 27.0245C14.2728 27.0268 14.5361 26.9762 14.7819 26.8756C15.0277 26.7751 15.251 26.6266 15.4388 26.4388C15.6266 26.251 15.7751 26.0277 15.8756 25.7819C15.9762 25.5361 16.0268 25.2728 16.0245 25.0072C16.0222 24.7416 15.967 24.4792 15.8622 24.2352C15.7574 23.9912 15.605 23.7705 15.414 23.586C15.0368 23.2217 14.5316 23.0201 14.0072 23.0247C13.4828 23.0292 12.9812 23.2395 12.6104 23.6104C12.2395 23.9812 12.0292 24.4828 12.0247 25.0072C12.0201 25.5316 12.2217 26.0368 12.586 26.414ZM34 34H40C40.2652 34 40.5196 34.1054 40.7071 34.2929C40.8946 34.4804 41 34.7348 41 35V40C41 40.2652 40.8946 40.5196 40.7071 40.7071C40.5196 40.8946 40.2652 41 40 41H34C33.7348 41 33.4804 40.8946 33.2929 40.7071C33.1054 40.5196 33 40.2652 33 40V35C33 34.7348 33.1054 34.4804 33.2929 34.2929C33.4804 34.1054 33.7348 34 34 34ZM35 36V39H39V36H35ZM34 32C33.7348 32 33.4804 31.8946 33.2929 31.7071C33.1054 31.5196 33 31.2652 33 31C33 30.7348 33.1054 30.4804 33.2929 30.2929C33.4804 30.1054 33.7348 30 34 30H40C40.2652 30 40.5196 30.1054 40.7071 30.2929C40.8946 30.4804 41 30.7348 41 31C41 31.2652 40.8946 31.5196 40.7071 31.7071C40.5196 31.8946 40.2652 32 40 32H34ZM33 26C32.7348 26 32.4804 25.8946 32.2929 25.7071C32.1054 25.5196 32 25.2652 32 25C32 24.7348 32.1054 24.4804 32.2929 24.2929C32.4804 24.1054 32.7348 24 33 24H35C35.2652 24 35.5196 24.1054 35.7071 24.2929C35.8946 24.4804 36 24.7348 36 25C36 25.2652 35.8946 25.5196 35.7071 25.7071C35.5196 25.8946 35.2652 26 35 26H33ZM39 26C38.7348 26 38.4804 25.8946 38.2929 25.7071C38.1054 25.5196 38 25.2652 38 25C38 24.7348 38.1054 24.4804 38.2929 24.2929C38.4804 24.1054 38.7348 24 39 24H41C41.2652 24 41.5196 24.1054 41.7071 24.2929C41.8946 24.4804 42 24.7348 42 25C42 25.2652 41.8946 25.5196 41.7071 25.7071C41.5196 25.8946 41.2652 26 41 26H39ZM13 37C12.7348 37 12.4804 36.8946 12.2929 36.7071C12.1054 36.5196 12 36.2652 12 36C12 35.7348 12.1054 35.4804 12.2929 35.2929C12.4804 35.1054 12.7348 35 13 35C13.2652 35 13.5196 35.1054 13.7071 35.2929C13.8946 35.4804 14 35.7348 14 36C14 36.2652 13.8946 36.5196 13.7071 36.7071C13.5196 36.8946 13.2652 37 13 37ZM21 37C20.7348 37 20.4804 36.8946 20.2929 36.7071C20.1054 36.5196 20 36.2652 20 36C20 35.7348 20.1054 35.4804 20.2929 35.2929C20.4804 35.1054 20.7348 35 21 35C21.2652 35 21.5196 35.1054 21.7071 35.2929C21.8946 35.4804 22 35.7348 22 36C22 36.2652 21.8946 36.5196 21.7071 36.7071C21.5196 36.8946 21.2652 37 21 37ZM4 3H26C26.2652 3 26.5196 3.10536 26.7071 3.29289C26.8946 3.48043 27 3.73478 27 4V16C27 16.2652 26.8946 16.5196 26.7071 16.7071C26.5196 16.8946 26.2652 17 26 17H4C3.73478 17 3.48043 16.8946 3.29289 16.7071C3.10536 16.5196 3 16.2652 3 16V4C3 3.73478 3.10536 3.48043 3.29289 3.29289C3.48043 3.10536 3.73478 3 4 3ZM5 5V15H14V5H5ZM16 5V15H25V5H16ZM11 13C10.7348 13 10.4804 12.8946 10.2929 12.7071C10.1054 12.5196 10 12.2652 10 12C10 11.7348 10.1054 11.4804 10.2929 11.2929C10.4804 11.1054 10.7348 11 11 11C11.2652 11 11.5196 11.1054 11.7071 11.2929C11.8946 11.4804 12 11.7348 12 12C12 12.2652 11.8946 12.5196 11.7071 12.7071C11.5196 12.8946 11.2652 13 11 13ZM19 13C18.7348 13 18.4804 12.8946 18.2929 12.7071C18.1054 12.5196 18 12.2652 18 12C18 11.7348 18.1054 11.4804 18.2929 11.2929C18.4804 11.1054 18.7348 11 19 11C19.2652 11 19.5196 11.1054 19.7071 11.2929C19.8946 11.4804 20 11.7348 20 12C20 12.2652 19.8946 12.5196 19.7071 12.7071C19.5196 12.8946 19.2652 13 19 13ZM34 8.52V4C34 3.73478 34.1054 3.48043 34.2929 3.29289C34.4804 3.10536 34.7348 3 35 3H39C39.2652 3 39.5196 3.10536 39.7071 3.29289C39.8946 3.48043 40 3.73478 40 4V8.52L44.625 12.22C44.7419 12.3136 44.8363 12.4323 44.9013 12.5673C44.9662 12.7023 44.9999 12.8502 45 13V16C45 16.2652 44.8946 16.5196 44.7071 16.7071C44.5196 16.8946 44.2652 17 44 17H30C29.7348 17 29.4804 16.8946 29.2929 16.7071C29.1054 16.5196 29 16.2652 29 16V13C29.0001 12.8502 29.0338 12.7023 29.0987 12.5673C29.1637 12.4323 29.2581 12.3136 29.375 12.22L34 8.52ZM36 5V9C35.9999 9.1498 35.9662 9.29766 35.9013 9.43267C35.8363 9.56768 35.7419 9.68638 35.625 9.78L31 13.48V15H43V13.48L38.375 9.78C38.2581 9.68638 38.1637 9.56768 38.0987 9.43267C38.0338 9.29766 38.0001 9.1498 38 9V5H36ZM36 14C35.7348 14 35.4804 13.8946 35.2929 13.7071C35.1054 13.5196 35 13.2652 35 13C35 12.7348 35.1054 12.4804 35.2929 12.2929C35.4804 12.1054 35.7348 12 36 12H38C38.2652 12 38.5196 12.1054 38.7071 12.2929C38.8946 12.4804 39 12.7348 39 13C39 13.2652 38.8946 13.5196 38.7071 13.7071C38.5196 13.8946 38.2652 14 38 14H36Z" fill="black"/>
</svg>
