<svg width="17" height="22" viewBox="0 0 17 22" fill="none" xmlns="http://www.w3.org/2000/svg">
<path fill-rule="evenodd" clip-rule="evenodd" d="M16.667 17.4511C16.667 20.8845 11.9587 21.2813 8.41803 21.2813L8.16466 21.2811C5.90887 21.2756 0.166992 21.1332 0.166992 17.4303C0.166992 14.067 4.68611 13.6176 8.19979 13.6006L8.6714 13.6003C10.927 13.6058 16.667 13.7482 16.667 17.4511ZM8.41803 15.1626C3.97949 15.1626 1.72949 15.9251 1.72949 17.4303C1.72949 18.949 3.97949 19.7188 8.41803 19.7188C12.8555 19.7188 15.1045 18.9563 15.1045 17.4511C15.1045 15.9324 12.8555 15.1626 8.41803 15.1626ZM8.41803 0.583008C11.468 0.583008 13.9482 3.06426 13.9482 6.11426C13.9482 9.16426 11.468 11.6445 8.41803 11.6445H8.3847C5.34095 11.6351 2.87533 9.1528 2.88571 6.11113C2.88571 3.06426 5.36699 0.583008 8.41803 0.583008ZM8.41803 2.07051C6.18783 2.07051 4.37322 3.88405 4.37322 6.11426C4.36595 8.33718 6.16699 10.1497 8.38783 10.158L8.41803 10.9018V10.158C10.6472 10.158 12.4607 8.34343 12.4607 6.11426C12.4607 3.88405 10.6472 2.07051 8.41803 2.07051Z" fill="#A7A7A7"/>
</svg>
