<svg width="26" height="25" viewBox="0 0 26 25" fill="none" xmlns="http://www.w3.org/2000/svg">
<path fill-rule="evenodd" clip-rule="evenodd" d="M12.2205 2.12153C12.6518 2.12153 13.0018 2.47153 13.0018 2.90278C13.0018 3.33403 12.6518 3.68403 12.2205 3.68403H8.32572C5.63405 3.68403 3.89551 5.52778 3.89551 8.38091V17.0413C3.89551 19.8945 5.63405 21.7382 8.32572 21.7382H17.5174C20.209 21.7382 21.9486 19.8945 21.9486 17.0413V12.8455C21.9486 12.4142 22.2986 12.0642 22.7299 12.0642C23.1611 12.0642 23.5111 12.4142 23.5111 12.8455V17.0413C23.5111 20.7851 21.1018 23.3007 17.5174 23.3007H8.32572C4.74134 23.3007 2.33301 20.7851 2.33301 17.0413V8.38091C2.33301 4.63716 4.74134 2.12153 8.32572 2.12153H12.2205ZM21.293 3.03674L22.5607 4.30445C23.1784 4.92112 23.518 5.74091 23.517 6.61383C23.517 7.48674 23.1774 8.30549 22.5607 8.92112L14.7388 16.743C14.1649 17.317 13.4003 17.6336 12.5878 17.6336H8.68572C8.4753 17.6336 8.27322 17.5482 8.12634 17.3972C7.97947 17.2472 7.89926 17.044 7.90447 16.8326L8.00238 12.8961C8.02217 12.1128 8.3378 11.3763 8.89197 10.8211L16.6774 3.03674C17.9503 1.76591 20.0201 1.76591 21.293 3.03674ZM16.0361 5.88674L9.99717 11.9263C9.72738 12.1961 9.57426 12.5545 9.56488 12.9347L9.48676 16.0711H12.5878C12.9836 16.0711 13.3545 15.918 13.6347 15.6378L19.7101 9.5607L16.0361 5.88674ZM17.7815 4.14195L17.1403 4.78153L20.8143 8.45653L21.4565 7.81591C21.7774 7.49508 21.9545 7.06799 21.9545 6.61383C21.9545 6.15862 21.7774 5.73049 21.4565 5.40966L20.1888 4.14195C19.5253 3.48049 18.4461 3.48049 17.7815 4.14195Z" fill="#FAFAFA"/>
</svg>
