<svg width="16" height="18" viewBox="0 0 16 18" fill="none" xmlns="http://www.w3.org/2000/svg">
<path d="M8.00036 16.4447C10.7105 15.12 12.1227 13.7453 12.8762 12.5165C13.6335 11.2817 13.7322 10.1842 13.8024 9.40304C13.9267 8.00681 14.1838 5.05144 14.2864 3.86689C12.0332 3.67889 9.86709 2.90907 8.00036 1.63255C6.13356 2.90912 3.96738 3.67895 1.71402 3.86691C1.81385 5.05087 2.07401 8.00413 2.19836 9.40299L8.00036 16.4447ZM8.00036 16.4447C5.29028 15.12 3.87825 13.7453 3.12481 12.5165C2.36818 11.2825 2.26908 10.1857 2.1985 9.40458L2.19837 9.40313L8.00036 16.4447ZM15.2268 3.43439L15.3264 3.44296L15.3264 3.44231C15.3318 3.37531 15.3235 3.30793 15.3022 3.24418C15.281 3.18076 15.2473 3.12224 15.2031 3.07207C15.1585 3.02059 15.1038 2.97877 15.0424 2.9492C14.981 2.91962 14.9142 2.9029 14.8461 2.90007L14.8461 2.89999H14.842C14.8421 2.89999 14.8417 2.89997 14.8407 2.89994C14.8365 2.89978 14.8217 2.89922 14.7952 2.89781C14.7641 2.89615 14.719 2.89342 14.6612 2.88918C14.5455 2.8807 14.3791 2.86618 14.1723 2.84205C13.7585 2.79378 13.1835 2.70714 12.5292 2.55373C11.2188 2.24648 9.59925 1.67336 8.3194 0.611817L8.31936 0.611784C8.22967 0.537469 8.11684 0.496802 8.00036 0.496802C7.88388 0.496802 7.77106 0.537469 7.68136 0.611784L7.68122 0.611899C6.40141 1.67617 4.7823 2.24927 3.47218 2.55582C2.81802 2.70888 2.24304 2.79499 1.82923 2.84282C1.62237 2.86673 1.45592 2.88106 1.34015 2.8894C1.28227 2.89357 1.23709 2.89624 1.2059 2.89786C1.17838 2.89929 1.16339 2.89982 1.15967 2.89995C1.15898 2.89998 1.15868 2.89999 1.15876 2.89999V2.89993L1.15534 2.90005C1.08751 2.90237 1.02087 2.91848 0.959464 2.94739C0.898061 2.9763 0.843188 3.01741 0.798187 3.06821C0.753185 3.11902 0.718996 3.17845 0.697704 3.24289C0.676412 3.30733 0.668462 3.37543 0.674339 3.44305L0.773963 3.43439L0.674341 3.44307L0.674353 3.44321L0.674404 3.4438L0.674606 3.44613L0.675404 3.45534L0.678535 3.49147L0.69056 3.63018L0.734675 4.13868L0.87924 5.80186C0.991539 7.09184 1.12355 8.60314 1.20236 9.48806L1.20238 9.48833L1.20341 9.49954C1.28355 10.3728 1.39933 11.6345 2.26019 13.0396C3.12454 14.4505 4.73326 15.9959 7.78538 17.4487L7.78587 17.4489C7.85299 17.4804 7.92622 17.4967 8.00036 17.4967C8.0745 17.4967 8.14774 17.4804 8.21485 17.4489L8.21534 17.4487C11.2679 15.9959 12.8776 14.4505 13.7423 13.0396C14.6067 11.6293 14.72 10.3636 14.7982 9.48978L14.7984 9.48819C14.8784 8.60318 15.0104 7.09181 15.1224 5.80184C15.1784 5.15682 15.2294 4.5671 15.2664 4.13864L15.3103 3.63013L15.3222 3.49141L15.3253 3.45528L15.3261 3.44607L15.3263 3.44374L15.3264 3.44316L15.3264 3.44301L15.2268 3.43439ZM9.39004 7.27265L7.43397 9.6084L6.62364 8.55768C6.58454 8.50397 6.53511 8.45858 6.47826 8.42419C6.42094 8.38951 6.35724 8.3667 6.29094 8.35712C6.22463 8.34755 6.15708 8.35139 6.0923 8.36842C6.02751 8.38546 5.9668 8.41534 5.91379 8.45629C5.86077 8.49724 5.81652 8.54843 5.78368 8.60681C5.75083 8.6652 5.73005 8.72959 5.72257 8.79616C5.71509 8.86273 5.72106 8.93012 5.74013 8.99434C5.75905 9.05802 5.79046 9.11729 5.83252 9.16869L7.02271 10.7114C7.06835 10.7707 7.12673 10.819 7.19353 10.8528C7.26034 10.8865 7.33387 10.9048 7.40871 10.9064L7.40871 10.9064H7.41076H7.41796H7.418C7.49129 10.9064 7.56367 10.8902 7.63003 10.8591C7.69633 10.828 7.75499 10.7828 7.80188 10.7265C7.80192 10.7265 7.80196 10.7264 7.802 10.7264L10.1578 7.91461L10.1579 7.91452C10.243 7.8127 10.2842 7.68123 10.2724 7.54905C10.2606 7.41686 10.1967 7.29478 10.0949 7.20966C9.99308 7.12455 9.86161 7.08336 9.72942 7.09517C9.59724 7.10699 9.47516 7.17083 9.39004 7.27265Z" fill="#FAFAFA" stroke="#FAFAFA" stroke-width="0.2"/>
</svg>
