<svg width="22" height="23" viewBox="0 0 22 23" fill="none" xmlns="http://www.w3.org/2000/svg">
<path fill-rule="evenodd" clip-rule="evenodd" d="M13.5174 1.46056C13.9486 1.46056 14.2986 1.81056 14.2986 2.24181C14.2986 2.67306 13.9486 3.02306 13.5174 3.02306H5.94655C3.33405 3.02306 1.64551 4.8189 1.64551 7.60015V16.0189C1.64551 18.8366 3.29342 20.5866 5.94655 20.5866H14.909C17.5215 20.5866 19.2101 18.7939 19.2101 16.0189V8.6866C19.2101 8.25535 19.5601 7.90535 19.9913 7.90535C20.4226 7.90535 20.7726 8.25535 20.7726 8.6866V16.0189C20.7726 19.6856 18.4163 22.1491 14.909 22.1491H5.94655C2.43926 22.1491 0.0830078 19.6856 0.0830078 16.0189V7.60015C0.0830078 3.92827 2.43926 1.46056 5.94655 1.46056H13.5174ZM15.7209 8.57494C16.0626 8.83952 16.1251 9.33015 15.8605 9.67077L12.8084 13.6083C12.6813 13.7729 12.4938 13.8801 12.2876 13.9051C12.0793 13.9333 11.873 13.8729 11.7084 13.7447L8.77301 11.4385L6.13655 14.8645C5.98238 15.0645 5.75113 15.1697 5.51676 15.1697C5.35009 15.1697 5.18238 15.1166 5.04072 15.0083C4.69905 14.7447 4.63447 14.2541 4.89801 13.9124L8.01572 9.86035C8.1428 9.69473 8.33134 9.58744 8.53759 9.5614C8.74801 9.53431 8.95426 9.59265 9.1178 9.72285L12.0553 12.0301L14.6251 8.71452C14.8897 8.37181 15.3793 8.30827 15.7209 8.57494ZM18.799 0.583374C20.3345 0.583374 21.5824 1.83129 21.5824 3.36671C21.5824 4.90212 20.3345 6.15108 18.799 6.15108C17.2647 6.15108 16.0157 4.90212 16.0157 3.36671C16.0157 1.83129 17.2647 0.583374 18.799 0.583374ZM18.799 2.14587C18.1261 2.14587 17.5782 2.69275 17.5782 3.36671C17.5782 4.03962 18.1261 4.58858 18.799 4.58858C19.472 4.58858 20.0199 4.03962 20.0199 3.36671C20.0199 2.69275 19.472 2.14587 18.799 2.14587Z" fill="#A7A7A7"/>
</svg>
