<svg width="15" height="" viewBox="0 0 70 71" fill="none" xmlns="http://www.w3.org/2000/svg">
<path d="M52.5 17.9999H42.0292L48.7375 11.3207C49.0094 11.0488 49.2252 10.7259 49.3723 10.3706C49.5195 10.0153 49.5953 9.63448 49.5953 9.24989C49.5953 8.8653 49.5195 8.48448 49.3723 8.12916C49.2252 7.77385 49.0094 7.451 48.7375 7.17906C48.4656 6.90711 48.1427 6.69139 47.7874 6.54422C47.4321 6.39704 47.0513 6.32129 46.6667 6.32129C45.89 6.32129 45.1451 6.62984 44.5958 7.17906L35 16.6582L31.5875 10.8249C31.396 10.4917 31.1407 10.1994 30.8363 9.96484C30.5318 9.73026 30.1841 9.55795 29.8131 9.45774C29.442 9.35753 29.0549 9.33139 28.6737 9.3808C28.2926 9.43021 27.9249 9.55421 27.5917 9.74572C27.2584 9.93723 26.9662 10.1925 26.7316 10.497C26.497 10.8014 26.3247 11.1491 26.2245 11.5201C26.1243 11.8912 26.0982 12.2783 26.1476 12.6595C26.197 13.0406 26.321 13.4083 26.5125 13.7416L29.1667 17.9999H17.5C15.1794 17.9999 12.9538 18.9218 11.3128 20.5627C9.67187 22.2036 8.75 24.4292 8.75 26.7499V50.0832C8.75 52.4039 9.67187 54.6295 11.3128 56.2704C12.9538 57.9113 15.1794 58.8332 17.5 58.8332V61.7499C17.5 62.5234 17.8073 63.2653 18.3543 63.8123C18.9013 64.3593 19.6431 64.6666 20.4167 64.6666C21.1902 64.6666 21.9321 64.3593 22.4791 63.8123C23.026 63.2653 23.3333 62.5234 23.3333 61.7499V58.8332H46.6667V61.7499C46.6667 62.5234 46.974 63.2653 47.5209 63.8123C48.0679 64.3593 48.8098 64.6666 49.5833 64.6666C50.3569 64.6666 51.0988 64.3593 51.6457 63.8123C52.1927 63.2653 52.5 62.5234 52.5 61.7499V58.8332C54.8206 58.8332 57.0462 57.9113 58.6872 56.2704C60.3281 54.6295 61.25 52.4039 61.25 50.0832V26.7499C61.25 24.4292 60.3281 22.2036 58.6872 20.5627C57.0462 18.9218 54.8206 17.9999 52.5 17.9999ZM55.4167 50.0832C55.4167 50.8568 55.1094 51.5986 54.5624 52.1456C54.0154 52.6926 53.2735 52.9999 52.5 52.9999H17.5C16.7265 52.9999 15.9846 52.6926 15.4376 52.1456C14.8906 51.5986 14.5833 50.8568 14.5833 50.0832V26.7499C14.5833 25.9763 14.8906 25.2345 15.4376 24.6875C15.9846 24.1405 16.7265 23.8332 17.5 23.8332H52.5C53.2735 23.8332 54.0154 24.1405 54.5624 24.6875C55.1094 25.2345 55.4167 25.9763 55.4167 26.7499V50.0832Z" fill="#252525"/>
</svg>
