<svg width="35" height="40" viewBox="0 0 35 40" fill="none" xmlns="http://www.w3.org/2000/svg">
<path fill-rule="evenodd" clip-rule="evenodd" d="M21.9485 0C22.0344 0 22.1186 0.00723226 22.2006 0.0211207L22.4733 0.0226C22.8813 0.0226 23.2713 0.1886 23.5553 0.4826L33.6873 11.0406C33.9533 11.3186 34.1033 11.6926 34.1033 12.0786V30.6786C34.1113 35.6166 30.0993 39.6786 25.1613 39.7306L8.79932 39.7326C3.85332 39.6466 -0.0826801 35.5726 0.00131987 30.6526V8.9806C0.11532 4.0186 4.21332 0.0226 9.13932 0.0226L21.6964 0.0211207C21.7784 0.00723226 21.8626 0 21.9485 0ZM20.448 3.022L9.14532 3.0226C5.82932 3.0226 3.07932 5.7066 3.00132 9.0166V30.6786C2.94332 33.9726 5.55732 36.6766 8.82732 36.7326L9.12132 36.7306H25.1453C28.4293 36.6946 31.1073 33.9806 31.1033 30.6806L31.102 13.966L27.0865 13.968C23.4245 13.958 20.4485 10.974 20.4485 7.318L20.448 3.022ZM16.6883 15.4278C17.5163 15.4278 18.1883 16.0998 18.1883 16.9278L18.188 20.326L21.5867 20.3274C22.4147 20.3274 23.0867 20.9994 23.0867 21.8274C23.0867 22.6554 22.4147 23.3274 21.5867 23.3274L18.188 23.326L18.1883 26.7278C18.1883 27.5558 17.5163 28.2278 16.6883 28.2278C15.8603 28.2278 15.1883 27.5558 15.1883 26.7278L15.188 23.326L11.7887 23.3274C10.9607 23.3274 10.2887 22.6554 10.2887 21.8274C10.2887 20.9994 10.9607 20.3274 11.7887 20.3274L15.188 20.326L15.1883 16.9278C15.1883 16.0998 15.8603 15.4278 16.6883 15.4278ZM23.448 4.704L23.4485 7.318C23.4485 9.326 25.0825 10.962 27.0905 10.968L29.456 10.966L23.448 4.704Z" fill="black"/>
</svg>
