<svg xmlns="http://www.w3.org/2000/svg" width="37" height="41" fill="none" viewBox="0 0 37 41"><path fill="#000" fill-rule="evenodd" d="M32.7731 14.379C33.5991 14.447 34.2151 15.169 34.1491 15.995C34.1371 16.131 33.0531 29.553 32.4291 35.183C32.0411 38.677 29.7331 40.803 26.2491 40.867C23.5831 40.913 21.0111 40.939 18.4971 40.939C15.7871 40.939 13.1451 40.909 10.5311 40.855C7.18711 40.789 4.87311 38.621 4.49511 35.197C3.86511 29.517 2.78711 16.129 2.77711 15.995C2.70911 15.169 3.32511 14.445 4.15111 14.379C4.96511 14.357 5.70111 14.929 5.76711 15.753C5.77349 15.8398 6.21419 21.307 6.69443 26.7164L6.79089 27.7959C7.03277 30.4846 7.27796 33.0683 7.47711 34.867C7.69111 36.813 8.74111 37.817 10.5931 37.855C15.5931 37.961 20.6951 37.967 26.1951 37.867C28.1631 37.829 29.2271 36.845 29.4471 34.853C30.0671 29.265 31.1471 15.889 31.1591 15.753C31.2251 14.929 31.9551 14.353 32.7731 14.379ZM22.6947 0.939575C24.5307 0.939575 26.1447 2.17757 26.6187 3.95158L27.1267 6.47358C27.2909 7.30032 28.0164 7.90409 28.8565 7.91735L35.4199 7.91758C36.2479 7.91758 36.9199 8.58957 36.9199 9.41757C36.9199 10.2456 36.2479 10.9176 35.4199 10.9176L28.9151 10.9173C28.905 10.9175 28.8949 10.9176 28.8847 10.9176L28.8359 10.9156L8.08714 10.9173C8.07101 10.9175 8.05487 10.9176 8.03871 10.9176L8.00791 10.9156L1.50391 10.9176C0.675906 10.9176 0.00390625 10.2456 0.00390625 9.41757C0.00390625 8.58957 0.675906 7.91758 1.50391 7.91758L8.06591 7.91558L8.26795 7.90279C9.02052 7.80515 9.64598 7.23358 9.79871 6.47358L10.2847 4.04158C10.7787 2.17758 12.3927 0.939575 14.2287 0.939575H22.6947ZM22.6947 3.93958H14.2287C13.7487 3.93958 13.3267 4.26158 13.2047 4.72358L12.7387 7.06358C12.6795 7.35997 12.5932 7.6456 12.4829 7.91811H24.4411C24.3306 7.6456 24.2442 7.35997 24.1847 7.06358L23.6987 4.63158C23.5967 4.26158 23.1747 3.93958 22.6947 3.93958Z" clip-rule="evenodd"/></svg>